<svg width="201" height="244" viewBox="0 0 201 244" fill="none" xmlns="http://www.w3.org/2000/svg">
<g filter="url(#filter0_d_3680_2)">
<path d="M182.9 0C191.184 0.000176828 197.9 6.71584 197.9 15V22.6914C197.9 26.2379 193.994 28.6582 190.448 28.6582C181.268 28.6586 173.827 36.1006 173.827 45.2803C173.827 54.4601 181.268 61.9019 190.448 61.9023C193.994 61.9023 197.9 64.3216 197.9 67.8682V83.4482C197.9 86.9947 193.994 89.415 190.448 89.415C181.268 89.4154 173.827 96.8565 173.827 106.036C173.827 115.216 181.268 122.658 190.448 122.658C193.994 122.658 197.9 125.077 197.9 128.624V136.317C197.9 144.601 191.184 151.317 182.9 151.317H61.5825C53.2985 151.317 46.5827 144.601 46.5825 136.317V128.029C46.5825 119.919 39.886 113.556 32.4663 110.281C19.1757 104.415 9.8999 91.1199 9.8999 75.6582C9.90004 60.1967 19.1758 46.9019 32.4663 41.0352C39.886 37.7599 46.5825 31.3976 46.5825 23.2871V15C46.5825 6.71584 53.2984 0.000164938 61.5825 0H182.9ZM109.439 40.625C104.283 40.625 100.337 42.1615 97.603 45.2344C94.8947 48.3073 93.5405 52.7734 93.5405 58.6328C93.5405 64.2318 95.8452 69.2057 100.455 73.5547L106.626 79.4141C108.449 81.1328 109.869 82.6432 110.884 83.9453C111.926 85.2214 112.655 86.5755 113.072 88.0078C113.488 89.4141 113.697 91.1719 113.697 93.2812C113.697 94.9479 113.449 96.1458 112.955 96.875C112.486 97.6042 111.626 97.9688 110.376 97.9688C109.179 97.9688 108.332 97.526 107.837 96.6406C107.369 95.7292 107.134 94.4792 107.134 92.8906V84.2969H93.5405V91.0156C93.5405 97.8385 94.9207 102.812 97.6812 105.938C100.468 109.062 104.999 110.625 111.275 110.625C117.186 110.625 121.327 108.802 123.697 105.156C126.093 101.484 127.291 96.4193 127.291 89.9609C127.291 86.7578 126.887 84.0495 126.08 81.8359C125.272 79.5964 124.205 77.6432 122.876 75.9766C121.548 74.2839 120.09 72.6823 118.501 71.1719L110.572 63.5547C109.035 62.0964 108.007 60.8073 107.486 59.6875C106.965 58.5677 106.705 57.526 106.705 56.5625C106.705 55.599 106.952 54.8177 107.447 54.2188C107.968 53.5938 108.775 53.2812 109.869 53.2812C110.78 53.2812 111.496 53.5417 112.017 54.0625C112.564 54.5833 112.837 55.3125 112.837 56.25V60.9766H126.822C126.822 54.1276 125.494 49.0234 122.837 45.6641C120.207 42.3047 115.741 40.625 109.439 40.625Z" fill="url(#paint0_linear_3680_2)"/>
</g>
<g filter="url(#filter1_d_3680_2)">
<path d="M48.6323 227.708C44.7098 227.708 41.8778 226.731 40.1362 224.778C38.411 222.825 37.5483 219.716 37.5483 215.452V211.253H46.0444V216.624C46.0444 217.617 46.1909 218.398 46.4839 218.968C46.7931 219.521 47.3221 219.798 48.0708 219.798C48.8521 219.798 49.3892 219.57 49.6821 219.114C49.9914 218.659 50.146 217.91 50.146 216.868C50.146 215.55 50.0158 214.451 49.7554 213.572C49.495 212.677 49.0392 211.831 48.3882 211.033C47.7534 210.219 46.8664 209.275 45.7271 208.201L41.8696 204.539C38.9888 201.821 37.5483 198.712 37.5483 195.213C37.5483 191.551 38.3947 188.759 40.0874 186.839C41.7964 184.918 44.2622 183.958 47.4849 183.958C51.4237 183.958 54.215 185.008 55.8589 187.107C57.519 189.207 58.3491 192.397 58.3491 196.678H49.6089V193.724C49.6089 193.138 49.438 192.682 49.0962 192.356C48.7707 192.031 48.3231 191.868 47.7534 191.868C47.0698 191.868 46.5653 192.063 46.2397 192.454C45.9305 192.828 45.7759 193.317 45.7759 193.919C45.7759 194.521 45.9386 195.172 46.2642 195.872C46.5897 196.572 47.2326 197.378 48.1929 198.289L53.1489 203.05C54.1418 203.994 55.0532 204.995 55.8833 206.053C56.7134 207.094 57.3807 208.315 57.8853 209.715C58.3898 211.098 58.6421 212.791 58.6421 214.793C58.6421 218.829 57.8934 221.995 56.396 224.29C54.9149 226.569 52.327 227.708 48.6323 227.708ZM61.3765 227.317V184.349H70.019V203.318L74.2183 190.696H83.2759L77.7827 206.614L84.7651 227.317H75.4634L70.019 210.057V227.317H61.3765ZM96.1909 227.708C93.5868 227.708 91.5116 227.22 89.9653 226.243C88.4191 225.267 87.3123 223.859 86.645 222.02C85.9777 220.18 85.644 217.967 85.644 215.379V200.657C85.644 197.256 86.6206 194.684 88.5737 192.942C90.5269 191.185 93.2124 190.306 96.6304 190.306C103.662 190.306 107.177 193.756 107.177 200.657V203.318C107.177 206.541 107.145 208.706 107.08 209.812H94.3843V216.893C94.3843 217.544 94.425 218.187 94.5063 218.821C94.5877 219.44 94.7668 219.952 95.0435 220.359C95.3364 220.766 95.8003 220.97 96.4351 220.97C97.3465 220.97 97.9162 220.579 98.144 219.798C98.3719 219 98.4858 217.967 98.4858 216.697V213.182H107.177V215.257C107.177 217.991 106.835 220.286 106.152 222.142C105.485 223.981 104.345 225.372 102.734 226.316C101.139 227.244 98.9578 227.708 96.1909 227.708ZM94.3354 205.467H98.4858V200.535C98.4858 199.217 98.3231 198.273 97.9976 197.703C97.672 197.117 97.1838 196.824 96.5327 196.824C95.8328 196.824 95.2876 197.101 94.897 197.654C94.5226 198.208 94.3354 199.168 94.3354 200.535V205.467ZM117.871 227.708C115.511 227.708 113.916 227.212 113.085 226.219C112.272 225.21 111.865 223.672 111.865 221.604V198.777H109.399V192.112H111.865V184.349H120.361V192.112H122.827V198.777H120.361V219.554C120.361 220.156 120.458 220.579 120.654 220.823C120.849 221.067 121.223 221.189 121.777 221.189C122.167 221.189 122.517 221.157 122.827 221.092V227.049C122.631 227.114 122.021 227.236 120.996 227.415C119.97 227.61 118.929 227.708 117.871 227.708ZM136.645 227.708C132.543 227.708 129.63 226.658 127.905 224.559C126.196 222.459 125.341 219.375 125.341 215.306V204.026C125.341 200.966 125.667 198.419 126.318 196.385C126.969 194.35 128.108 192.828 129.736 191.819C131.363 190.81 133.626 190.306 136.523 190.306C138.541 190.306 140.348 190.664 141.943 191.38C143.554 192.096 144.824 193.146 145.751 194.529C146.679 195.913 147.143 197.605 147.143 199.607V205.198H138.232V200.071C138.232 199.225 138.11 198.517 137.866 197.947C137.622 197.361 137.093 197.068 136.279 197.068C134.847 197.068 134.13 198.086 134.13 200.12V217.869C134.13 218.618 134.293 219.31 134.619 219.944C134.944 220.563 135.481 220.872 136.23 220.872C136.995 220.872 137.524 220.571 137.817 219.969C138.126 219.35 138.281 218.634 138.281 217.82V211.668H147.143V218.064C147.143 220.083 146.687 221.816 145.776 223.265C144.881 224.697 143.644 225.796 142.065 226.561C140.486 227.326 138.68 227.708 136.645 227.708ZM150.195 227.317V184.349H159.179V194.334C159.651 192.967 160.375 191.958 161.352 191.307C162.329 190.639 163.468 190.306 164.77 190.306C167.309 190.306 169.156 191.103 170.312 192.698C171.468 194.293 172.045 196.434 172.045 199.119V227.317H163.208V199.681C163.208 198.883 163.037 198.232 162.695 197.728C162.369 197.223 161.848 196.971 161.132 196.971C160.53 196.971 160.05 197.231 159.692 197.752C159.35 198.273 159.179 198.891 159.179 199.607V227.317H150.195ZM182.153 227.708C180.118 227.708 178.564 227.236 177.49 226.292C176.432 225.348 175.708 224.054 175.317 222.41C174.926 220.766 174.731 218.903 174.731 216.819C174.731 214.59 174.951 212.767 175.39 211.351C175.83 209.918 176.578 208.746 177.636 207.835C178.71 206.924 180.183 206.15 182.055 205.516L187.475 203.66V199.9C187.475 197.931 186.832 196.946 185.546 196.946C184.375 196.946 183.789 197.744 183.789 199.339V201.536H175.292C175.276 201.406 175.268 201.243 175.268 201.048C175.268 200.836 175.268 200.6 175.268 200.34C175.268 196.694 176.123 194.114 177.832 192.601C179.557 191.071 182.283 190.306 186.01 190.306C187.963 190.306 189.713 190.656 191.259 191.355C192.806 192.039 194.026 193.056 194.921 194.407C195.833 195.758 196.289 197.426 196.289 199.412V227.317H187.597V222.972C187.174 224.502 186.474 225.674 185.498 226.487C184.521 227.301 183.406 227.708 182.153 227.708ZM185.595 220.921C186.311 220.921 186.8 220.62 187.06 220.018C187.32 219.415 187.451 218.764 187.451 218.064V207.859C186.246 208.348 185.31 208.966 184.643 209.715C183.976 210.447 183.642 211.53 183.642 212.962V217.674C183.642 219.839 184.293 220.921 185.595 220.921Z" fill="url(#paint1_linear_3680_2)"/>
</g>
<defs>
<filter id="filter0_d_3680_2" x="-9.77516e-05" y="0" width="199.8" height="164.217" filterUnits="userSpaceOnUse" color-interpolation-filters="sRGB">
<feFlood flood-opacity="0" result="BackgroundImageFix"/>
<feColorMatrix in="SourceAlpha" type="matrix" values="0 0 0 0 0 0 0 0 0 0 0 0 0 0 0 0 0 0 127 0" result="hardAlpha"/>
<feOffset dx="-4" dy="7"/>
<feGaussianBlur stdDeviation="2.95"/>
<feComposite in2="hardAlpha" operator="out"/>
<feColorMatrix type="matrix" values="0 0 0 0 0 0 0 0 0 0 0 0 0 0 0 0 0 0 0.25 0"/>
<feBlend mode="normal" in2="BackgroundImageFix" result="effect1_dropShadow_3680_2"/>
<feBlend mode="normal" in="SourceGraphic" in2="effect1_dropShadow_3680_2" result="shape"/>
</filter>
<filter id="filter1_d_3680_2" x="33.5483" y="183.958" width="166.74" height="51.75" filterUnits="userSpaceOnUse" color-interpolation-filters="sRGB">
<feFlood flood-opacity="0" result="BackgroundImageFix"/>
<feColorMatrix in="SourceAlpha" type="matrix" values="0 0 0 0 0 0 0 0 0 0 0 0 0 0 0 0 0 0 127 0" result="hardAlpha"/>
<feOffset dy="4"/>
<feGaussianBlur stdDeviation="2"/>
<feComposite in2="hardAlpha" operator="out"/>
<feColorMatrix type="matrix" values="0 0 0 0 0 0 0 0 0 0 0 0 0 0 0 0 0 0 0.25 0"/>
<feBlend mode="normal" in2="BackgroundImageFix" result="effect1_dropShadow_3680_2"/>
<feBlend mode="normal" in="SourceGraphic" in2="effect1_dropShadow_3680_2" result="shape"/>
</filter>
<linearGradient id="paint0_linear_3680_2" x1="103.9" y1="0" x2="103.9" y2="151.317" gradientUnits="userSpaceOnUse">
<stop stop-color="#B7F700"/>
<stop offset="1" stop-color="#FCFF00"/>
</linearGradient>
<linearGradient id="paint1_linear_3680_2" x1="103.9" y1="168.317" x2="103.9" y2="243.317" gradientUnits="userSpaceOnUse">
<stop stop-color="#B7F700"/>
<stop offset="1" stop-color="#FCFF00"/>
</linearGradient>
</defs>
</svg>
