<svg width="189" height="71" viewBox="0 0 189 71" fill="none" xmlns="http://www.w3.org/2000/svg">
<path d="M188.931 44.309H188.932L151.844 71H27.7427V67.6696L150.273 67.6701L184.809 42.8162V19.4957H188.931V44.309Z" fill="url(#paint0_linear_3162_143)"/>
<path d="M4.1235 67.6696H23.0637V71H0.00134185V54.736H4.1235V67.6696Z" fill="url(#paint1_linear_3162_143)"/>
<path d="M160.783 3.33041H38.6586L4.1235 28.1833V50.9552H0.00134185V26.691H0L37.0887 0H160.783V3.33041Z" fill="url(#paint2_linear_3162_143)"/>
<path d="M188.931 15.7154H184.809V3.33041H165.463V0H188.931V15.7154Z" fill="url(#paint3_linear_3162_143)"/>
<g clip-path="url(#clip0_3162_143)">
<path d="M47.276 49.339H64.4673C65.4182 49.339 66.1864 48.5659 66.1864 47.6091C66.1864 46.6523 65.4182 45.8792 64.4673 45.8792V42.2735C65.4666 41.9167 66.1864 40.9545 66.1864 39.8247V24.2558C66.1864 22.8233 65.0314 21.661 63.6078 21.661H47.276C44.4287 21.661 42.1187 23.9855 42.1187 26.8506V44.1494C42.1187 47.0145 44.4287 49.339 47.276 49.339ZM45.5569 44.1494C45.5569 43.1925 46.3251 42.4195 47.276 42.4195H61.0291V45.8792H47.276C46.3251 45.8792 45.5569 45.1062 45.5569 44.1494ZM56.7312 30.4834V31.1753C56.7312 31.651 56.3444 32.0402 55.8717 32.0402H52.4334C51.9607 32.0402 51.5739 31.651 51.5739 31.1753V30.4834C50.5316 29.8509 49.8547 28.8454 49.8547 27.7156C49.8547 25.8073 51.778 24.2558 54.1526 24.2558C56.5271 24.2558 58.4504 25.8073 58.4504 27.7156C58.4504 28.8454 57.7735 29.8509 56.7312 30.4834ZM53.293 27.7156C53.293 27.4862 53.2024 27.2662 53.0412 27.104C52.88 26.9418 52.6614 26.8506 52.4334 26.8506C52.2055 26.8506 51.9868 26.9418 51.8256 27.104C51.6644 27.2662 51.5739 27.4862 51.5739 27.7156C51.5739 27.945 51.6644 28.165 51.8256 28.3272C51.9868 28.4894 52.2055 28.5805 52.4334 28.5805C52.6614 28.5805 52.88 28.4894 53.0412 28.3272C53.2024 28.165 53.293 27.945 53.293 27.7156ZM55.8717 28.5805C56.0997 28.5805 56.3183 28.4894 56.4795 28.3272C56.6407 28.165 56.7312 27.945 56.7312 27.7156C56.7312 27.4862 56.6407 27.2662 56.4795 27.104C56.3183 26.9418 56.0997 26.8506 55.8717 26.8506C55.6437 26.8506 55.4251 26.9418 55.2639 27.104C55.1027 27.2662 55.0121 27.4862 55.0121 27.7156C55.0121 27.945 55.1027 28.165 55.2639 28.3272C55.4251 28.4894 55.6437 28.5805 55.8717 28.5805ZM59.8579 33.7539C60.105 34.2999 59.8633 34.9378 59.3261 35.1865L56.7527 36.3649L59.3261 37.5434C59.8687 37.7921 60.105 38.43 59.8579 38.976C59.6108 39.5219 58.9769 39.7598 58.4343 39.5111L54.1526 37.5542L49.8708 39.5111C49.3282 39.7598 48.6943 39.5165 48.4472 38.976C48.2001 38.4354 48.4418 37.7921 48.979 37.5434L51.5524 36.3649L48.979 35.1865C48.4364 34.9378 48.2001 34.2999 48.4472 33.7539C48.6943 33.2079 49.3282 32.9701 49.8708 33.2187L54.1526 35.1756L58.4343 33.2187C58.9769 32.9701 59.6108 33.2133 59.8579 33.7539Z" fill="url(#paint4_linear_3162_143)"/>
</g>
<path d="M81.7124 24.722H86.0278C87.528 24.722 88.6223 25.075 89.3106 25.781C89.999 26.4694 90.3431 27.5372 90.3431 28.9844V30.1229C90.3431 32.0467 89.7077 33.2645 88.437 33.7763V33.8293C89.1429 34.0411 89.6371 34.4735 89.9195 35.1265C90.2196 35.7796 90.3696 36.6532 90.3696 37.7475V41.0039C90.3696 41.5334 90.3872 41.9658 90.4225 42.3012C90.4578 42.6189 90.5461 42.9365 90.6873 43.2542H87.7221C87.6162 42.9542 87.5456 42.6718 87.5103 42.4071C87.475 42.1423 87.4574 41.6658 87.4574 40.9774V37.5887C87.4574 36.7415 87.3162 36.1502 87.0338 35.8149C86.7691 35.4795 86.3013 35.3119 85.6306 35.3119H84.6246V43.2542H81.7124V24.722ZM85.6836 32.6644C86.266 32.6644 86.6985 32.5144 86.9809 32.2143C87.2809 31.9143 87.4309 31.4113 87.4309 30.7053V29.2757C87.4309 28.605 87.3074 28.1196 87.0603 27.8196C86.8308 27.5195 86.4602 27.3695 85.9483 27.3695H84.6246V32.6644H85.6836ZM92.3901 24.722H100.333V27.3695H95.3023V32.2673H99.3V34.9148H95.3023V40.6068H100.333V43.2542H92.3901V24.722ZM104.258 24.722H108.203L111.221 43.2542H108.309L107.779 39.5743V39.6272H104.47L103.941 43.2542H101.24L104.258 24.722ZM107.435 37.1121L106.138 27.9519H106.085L104.814 37.1121H107.435ZM112.634 24.722H117.082C118.529 24.722 119.614 25.1103 120.338 25.8869C121.062 26.6635 121.423 27.8019 121.423 29.3021V38.6741C121.423 40.1744 121.062 41.3128 120.338 42.0894C119.614 42.8659 118.529 43.2542 117.082 43.2542H112.634V24.722ZM117.029 40.6068C117.505 40.6068 117.867 40.4656 118.114 40.1832C118.379 39.9008 118.511 39.4419 118.511 38.8065V29.1698C118.511 28.5344 118.379 28.0755 118.114 27.7931C117.867 27.5107 117.505 27.3695 117.029 27.3695H115.546V40.6068H117.029ZM127.629 24.722H131.283L134.116 35.8149H134.168V24.722H136.763V43.2542H133.771L130.277 29.7257H130.224V43.2542H127.629V24.722ZM143.137 43.519C141.707 43.519 140.613 43.113 139.854 42.3012C139.095 41.4893 138.716 40.342 138.716 38.8595V29.1168C138.716 27.6342 139.095 26.487 139.854 25.6751C140.613 24.8632 141.707 24.4573 143.137 24.4573C144.567 24.4573 145.661 24.8632 146.42 25.6751C147.179 26.487 147.558 27.6342 147.558 29.1168V38.8595C147.558 40.342 147.179 41.4893 146.42 42.3012C145.661 43.113 144.567 43.519 143.137 43.519ZM143.137 40.8715C144.143 40.8715 144.646 40.2626 144.646 39.0448V28.9315C144.646 27.7137 144.143 27.1048 143.137 27.1048C142.131 27.1048 141.628 27.7137 141.628 28.9315V39.0448C141.628 40.2626 142.131 40.8715 143.137 40.8715ZM148.839 24.722H151.646L152.943 38.9654H152.996L154.373 24.722H157.549L158.926 38.9654H158.979L160.276 24.722H162.791L160.912 43.2542H157.285L155.961 30.7582H155.908L154.584 43.2542H150.719L148.839 24.722Z" fill="url(#paint5_linear_3162_143)"/>
<defs>
<linearGradient id="paint0_linear_3162_143" x1="94.4661" y1="0" x2="94.4661" y2="71" gradientUnits="userSpaceOnUse">
<stop stop-color="#B7F700"/>
<stop offset="1" stop-color="#FCFF00"/>
</linearGradient>
<linearGradient id="paint1_linear_3162_143" x1="94.4661" y1="0" x2="94.4661" y2="71" gradientUnits="userSpaceOnUse">
<stop stop-color="#B7F700"/>
<stop offset="1" stop-color="#FCFF00"/>
</linearGradient>
<linearGradient id="paint2_linear_3162_143" x1="94.4661" y1="0" x2="94.4661" y2="71" gradientUnits="userSpaceOnUse">
<stop stop-color="#B7F700"/>
<stop offset="1" stop-color="#FCFF00"/>
</linearGradient>
<linearGradient id="paint3_linear_3162_143" x1="94.4661" y1="0" x2="94.4661" y2="71" gradientUnits="userSpaceOnUse">
<stop stop-color="#B7F700"/>
<stop offset="1" stop-color="#FCFF00"/>
</linearGradient>
<linearGradient id="paint4_linear_3162_143" x1="54.1526" y1="21.661" x2="54.1526" y2="49.339" gradientUnits="userSpaceOnUse">
<stop stop-color="#B7F700"/>
<stop offset="1" stop-color="#FCFF00"/>
</linearGradient>
<linearGradient id="paint5_linear_3162_143" x1="122.127" y1="19.2542" x2="122.127" y2="51.2542" gradientUnits="userSpaceOnUse">
<stop stop-color="#B7F700"/>
<stop offset="1" stop-color="#FCFF00"/>
</linearGradient>
<clipPath id="clip0_3162_143">
<rect width="24.143" height="27.592" fill="white" transform="translate(42.1187 20.4576)"/>
</clipPath>
</defs>
</svg>
