<svg width="43" height="43" viewBox="0 0 43 43" fill="none" xmlns="http://www.w3.org/2000/svg">
<path d="M39.9316 37.4012L37.3994 39.9298L32.3386 34.869L34.869 32.3386L39.9316 37.4012ZM19.6849 3.57906C20.1526 3.58017 20.6202 3.60167 21.0861 3.64348C20.4668 4.73416 20.0435 5.9249 19.8352 7.1617L19.6849 7.15812C12.7648 7.15812 7.15816 12.7647 7.15816 19.6848C7.15816 26.6049 12.7648 32.2115 19.6849 32.2115C26.605 32.2115 32.2116 26.6049 32.2116 19.6848L32.2062 19.5327C33.4431 19.3239 34.6339 18.8999 35.7244 18.28C35.7638 18.7453 35.7906 19.2106 35.7906 19.6848C35.7906 28.5752 28.5753 35.7906 19.6849 35.7906C10.7945 35.7906 3.5791 28.5752 3.5791 19.6848C3.5791 10.7944 10.7945 3.57906 19.6849 3.57906ZM29.581 2.36218C29.6481 2.19393 29.7641 2.04968 29.914 1.94806C30.0639 1.84644 30.2409 1.79211 30.422 1.79211C30.6032 1.79211 30.7801 1.84644 30.9301 1.94806C31.08 2.04968 31.196 2.19393 31.2631 2.36218L31.7177 3.45379C32.4773 5.30609 33.9184 6.79651 35.7441 7.61803L37.029 8.19068C37.1933 8.26669 37.3324 8.38814 37.4299 8.54066C37.5273 8.69319 37.5791 8.87042 37.5791 9.05144C37.5791 9.23246 37.5273 9.40969 37.4299 9.56222C37.3324 9.71474 37.1933 9.83618 37.029 9.9122L35.6689 10.5171C33.889 11.3158 32.4729 12.7523 31.6998 14.5435L31.2578 15.5564C31.189 15.7213 31.0729 15.8622 30.9242 15.9613C30.7755 16.0604 30.6008 16.1133 30.422 16.1133C30.2433 16.1133 30.0686 16.0604 29.9199 15.9613C29.7712 15.8622 29.6551 15.7213 29.5863 15.5564L29.1461 14.5453C28.3725 12.7528 26.9549 11.3155 25.1734 10.5171L23.8133 9.9122C23.6485 9.8364 23.5089 9.71494 23.4111 9.56222C23.3132 9.4095 23.2612 9.23193 23.2612 9.05054C23.2612 8.86916 23.3132 8.69159 23.4111 8.53887C23.5089 8.38615 23.6485 8.26469 23.8133 8.18889L25.0982 7.61624C26.9239 6.79595 28.3656 5.30686 29.1264 3.45558L29.581 2.36218Z" fill="url(#paint0_linear_3620_371)"/>
<defs>
<linearGradient id="paint0_linear_3620_371" x1="21.7554" y1="1.79211" x2="21.7554" y2="39.9298" gradientUnits="userSpaceOnUse">
<stop stop-color="#A8E300"/>
<stop offset="1" stop-color="#EAF6C6"/>
</linearGradient>
</defs>
</svg>
