<svg width="130" height="52" viewBox="0 0 130 52" fill="none" xmlns="http://www.w3.org/2000/svg">
<path d="M0 9H86.8508L119 26.5L86.8508 44H0L18.5938 26.5L0 9Z" fill="url(#paint0_linear_3559_605)"/>
<path d="M25.2314 19.5H27.3721L28.7607 29.9721H28.7993L30.1879 19.5H32.1357L30.0914 33H27.2757L25.2314 19.5ZM33.1547 19.5H35.2761V33H33.1547V19.5ZM36.8649 19.5H42.6506V21.4286H38.9864V24.9964H41.8985V26.925H38.9864V31.0714H42.6506V33H36.8649V19.5ZM43.3696 19.5H45.4139L46.3589 29.8757H46.3975L47.4004 19.5H49.7146L50.7175 29.8757H50.7561L51.7011 19.5H53.5332L52.1639 33H49.5218L48.5575 23.8971H48.5189L47.5546 33H44.7389L43.3696 19.5ZM57.695 19.5H60.7229L62.0729 29.1621H62.1114L63.4614 19.5H66.4893V33H64.4836V22.7786H64.445L62.9022 33H61.1279L59.585 22.7786H59.5464V33H57.695V19.5ZM71.1388 33.1929C70.0974 33.1929 69.3002 32.8971 68.7474 32.3057C68.1945 31.7143 67.9181 30.8786 67.9181 29.7986V22.7014C67.9181 21.6214 68.1945 20.7857 68.7474 20.1943C69.3002 19.6029 70.0974 19.3071 71.1388 19.3071C72.1802 19.3071 72.9774 19.6029 73.5302 20.1943C74.0831 20.7857 74.3595 21.6214 74.3595 22.7014V29.7986C74.3595 30.8786 74.0831 31.7143 73.5302 32.3057C72.9774 32.8971 72.1802 33.1929 71.1388 33.1929ZM71.1388 31.2643C71.8717 31.2643 72.2381 30.8207 72.2381 29.9336V22.5664C72.2381 21.6793 71.8717 21.2357 71.1388 21.2357C70.406 21.2357 70.0395 21.6793 70.0395 22.5664V29.9336C70.0395 30.8207 70.406 31.2643 71.1388 31.2643ZM75.7942 19.5H78.9378C80.0306 19.5 80.8278 19.7571 81.3292 20.2714C81.8306 20.7729 82.0813 21.5507 82.0813 22.605V23.4343C82.0813 24.8357 81.6185 25.7229 80.6928 26.0957V26.1343C81.2071 26.2886 81.5671 26.6036 81.7728 27.0793C81.9913 27.555 82.1006 28.1914 82.1006 28.9886V31.3607C82.1006 31.7464 82.1135 32.0614 82.1392 32.3057C82.1649 32.5371 82.2292 32.7686 82.3321 33H80.1721C80.0949 32.7814 80.0435 32.5757 80.0178 32.3829C79.9921 32.19 79.9792 31.8429 79.9792 31.3414V28.8729C79.9792 28.2557 79.8763 27.825 79.6706 27.5807C79.4778 27.3364 79.1371 27.2143 78.6485 27.2143H77.9156V33H75.7942V19.5ZM78.6871 25.2857C79.1113 25.2857 79.4263 25.1764 79.6321 24.9579C79.8506 24.7393 79.9599 24.3729 79.9599 23.8586V22.8171C79.9599 22.3286 79.8699 21.975 79.6899 21.7564C79.5228 21.5379 79.2528 21.4286 78.8799 21.4286H77.9156V25.2857H78.6871ZM83.5725 19.5H89.3582V21.4286H85.694V24.9964H88.6061V26.925H85.694V31.0714H89.3582V33H83.5725V19.5Z" fill="black"/>
<defs>
<linearGradient id="paint0_linear_3559_605" x1="59.5" y1="9" x2="59.5" y2="44" gradientUnits="userSpaceOnUse">
<stop stop-color="#B7F700"/>
<stop offset="1" stop-color="#FCFF00"/>
</linearGradient>
</defs>
</svg>
